# xmcd
#
# Track frame offsets:
#	150
#	15863
#	26153
#	41433
#	60314
#	77471
#	91838
#	120443
#	132681
#	146404
#	161808
#	176369
#	195967
#	207380
#	213274
#	224136
#	248035
#	260139
#	269808
#	286663
#	291489
#	298494
#	308061
#	318026
#	325254
#
# Disc length: 4372 seconds
#
# Revision: 1
# Processed by: cddbd v1.5.1PL0 Copyright (c) Steve Scherf et al.
# Submitted via: audiograbber 1.83.01
#
DISCID=7a111219
DTITLE=Dead Can Dance - Unreleased Tracks Vol. 1
DYEAR=1900
DGENRE=
TTITLE0=Inner Life
TTITLE1=Daylight
TTITLE2=Yours
TTITLE3=Labour Of Love
TTITLE4=The Children´s Toys
TTITLE5=Yan T´Chin Song
TTITLE6=Instrumental In Southhampton
TTITLE7=Shanga
TTITLE8=Ash Song
TTITLE9=Adha Song
TTITLE10=A Poison Tree
TTITLE11=Our Kingdom
TTITLE12=Deckra
TTITLE13=Accord
TTITLE14=Clap Along Song
TTITLE15=I Don´t Believe In Anymore
TTITLE16=Santora
TTITLE17=Ondra Reist I
TTITLE18=Ondra Reist II
TTITLE19=Ondra Reist III
TTITLE20=Rami
TTITLE21=East Of The River
TTITLE22=Matawa
TTITLE23=Svatba
TTITLE24=Heavenly Bodies And Lisa Gerrard
EXTD=
EXTT0=
EXTT1=
EXTT2=
EXTT3=
EXTT4=
EXTT5=
EXTT6=
EXTT7=
EXTT8=
EXTT9=
EXTT10=
EXTT11=
EXTT12=
EXTT13=
EXTT14=
EXTT15=
EXTT16=
EXTT17=
EXTT18=
EXTT19=
EXTT20=
EXTT21=
EXTT22=
EXTT23=
EXTT24=
PLAYORDER=
